<svg xmlns="http://www.w3.org/2000/svg" xmlns:xlink="http://www.w3.org/1999/xlink" viewBox="0 0 324 323"><defs><style>.cls-1{fill:#ffd766;}.cls-2{clip-path:url(#clip-path);}.cls-3{fill:#bf3a3a;}</style><clipPath id="clip-path"><path class="cls-1" d="M312,120H257.53l-33-98.49C220.23,8.64,206.51,0,190.39,0H133.61c-16.12,0-29.84,8.64-34.15,21.51L66.47,120H12A12,12,0,0,0,0,132v26a12,12,0,0,0,12,12h7.38L51.14,302.7A26.46,26.46,0,0,0,76.88,323H246.12a26.46,26.46,0,0,0,25.74-20.3L303.62,170H312a12,12,0,0,0,12-12V132A12,12,0,0,0,312,120ZM131,34.38a8.34,8.34,0,0,1,2.61-.38h56.78a8.34,8.34,0,0,1,2.61.38L221.68,120H102.32ZM122,281a11,11,0,0,1-22,0V205a11,11,0,0,1,22,0Zm51,0a11,11,0,0,1-22,0V205a11,11,0,0,1,22,0Zm51,0a11,11,0,0,1-22,0V205a11,11,0,0,1,22,0Z"/></clipPath></defs><title>basket_1</title><g id="Layer_2" data-name="Layer 2"><g id="Layer_2-2" data-name="Layer 2"><path class="cls-1" d="M312,120H257.53l-33-98.49C220.23,8.64,206.51,0,190.39,0H133.61c-16.12,0-29.84,8.64-34.15,21.51L66.47,120H12A12,12,0,0,0,0,132v26a12,12,0,0,0,12,12h7.38L51.14,302.7A26.46,26.46,0,0,0,76.88,323H246.12a26.46,26.46,0,0,0,25.74-20.3L303.62,170H312a12,12,0,0,0,12-12V132A12,12,0,0,0,312,120ZM131,34.38a8.34,8.34,0,0,1,2.61-.38h56.78a8.34,8.34,0,0,1,2.61.38L221.68,120H102.32ZM122,281a11,11,0,0,1-22,0V205a11,11,0,0,1,22,0Zm51,0a11,11,0,0,1-22,0V205a11,11,0,0,1,22,0Zm51,0a11,11,0,0,1-22,0V205a11,11,0,0,1,22,0Z"/><g class="cls-2"><path class="cls-3" d="M190.39,0H133.61c-16.12,0-29.84,8.64-34.15,21.51L66.47,120H12A12,12,0,0,0,0,132v26a12,12,0,0,0,12,12h7.38L51.14,302.7A26.46,26.46,0,0,0,76.88,323h48.64L151,218.39V205a11,11,0,0,1,5.59-9.57h0L161.08,177l1.71-7,6.58-27,2-8L175,120H102.32L131,34.38a8.34,8.34,0,0,1,2.61-.38h56.78a8.34,8.34,0,0,1,2.61.38l1.64,4.89,9-37.17A42.07,42.07,0,0,0,190.39,0ZM122,281a11,11,0,0,1-22,0V205a11,11,0,0,1,22,0Z"/></g></g></g></svg>