<svg xmlns="http://www.w3.org/2000/svg" viewBox="0 0 459.03 414.09"><defs><style>.cls-1{fill:#020202;}.cls-2{fill:#bfeced;}.cls-3{fill:#c0edee;}.cls-4{fill:#63d3d7;}.cls-5{fill:#2582a4;}</style></defs><title>galons</title><g id="Layer_2" data-name="Layer 2"><g id="Layer_1-2" data-name="Layer 1"><path class="cls-1" d="M278.75,342.06c-1,4.83-4.09,6.15-8.74,6-20.2-.81-38.3-18.83-39.5-39-.3-5,2.07-8.13,5.45-10.69,5.49-4.17,7.33-9.34,6.7-16.13-.58-6.18-.17-12.45-.11-18.68.09-9.31.22-17.76-7-26-8.46-9.58-6.72-24.77,2.15-34.31,4-4.31,5.48-8.44,4.9-13.89-.5-4.67.54-8.48,6-9.47,4.37.87,6.42,3.5,6,8-.24,2.77,0,4.44,3.8,4.41,34.72-.29,69.43-.31,104.15-.41,9.41.08,18.82.24,28.23.21,4.29,0,7.61,1.32,7.61,6s-3.32,6.05-7.61,6c-9.41,0-18.82.13-28.23.21-33.91-.08-67.82-.27-101.73-.15-10.5,0-18.18,8-18.18,17.9a17.78,17.78,0,0,0,18.18,17.91c33.91.12,67.82-.08,101.73-.15h60.08c1,.08,2,.23,3,.23,12,0,20.1-6.39,20.91-16.64.78-10-5.75-17.37-17.47-19.21-2.74-.43-4.44-1.87-6.3-3.45v-5.38c2-1.86,4-3.95,7.07-3.26,5,1.12,4.93-1.91,4.84-5.44-.17-6.46,0-12.93,0-19.4,0-11.56,0-11.56-12-11H248.52c-17.8-8.7-22.17-22-12.46-38.81,7.84-13.6,19.87-20.63,35.52-21.39,4.24-.21,8.5,0,12.74-.07,17.05-.37,29.74-12.9,30.21-29.84.1-3.5-.18-7,.07-10.49.36-4.89.36-8.64-6.6-7.93-3.62.37-5.46-2.88-5.45-6.68q0-16.87,0-33.73C302.54,2.39,305,0,309.94,0q34.48,0,69,0c5.37,0,7.71,2.56,7.67,7.81-.07,10.74-.08,21.49,0,32.23,0,5.18-2.13,8.38-7.49,7.89-4.55-.42-4.85,1.92-4.54,5.25a12.36,12.36,0,0,1,0,2.25C371.87,84.87,388.28,97.84,415,96.31c21.85-1.25,38.39,13.2,42.83,34.16,1.28,6.06,1,11.4-4.58,15.29s-7.5,9.21-6.87,16.07c.61,6.69.09,13.48.14,20.23.07,8.53-.33,16.25,6.63,23.94,9.35,10.33,6.87,26.11-3.29,36.73a10.85,10.85,0,0,0-3.43,8.48c.21,10.74.46,21.51-.07,32.22-.3,6.07,1.24,10.69,6.15,14.11,6.33,4.42,6.68,10.27,5,17.21-4.71,19.62-20.67,33.1-40.78,33.21-35.23.21-70.46,0-105.69.12-4.58,0-7.82-1.14-8.76-6,1.06-6,5.41-6.09,10.19-6.08q51.62.12,103.23,0c15,0,26.78-9.51,30-23.27.63-2.7.1-4.44-1.51-6.73-5.74-8.16-13.93-5.82-21.66-5.71H362.51q-52.72-.12-105.44-.23c-11.46,0-16.57,7.71-11.86,18,5,10.94,13.71,16.89,25.59,17.8C275.17,336.21,277.88,337.7,278.75,342.06Zm143.84-54.28A36.2,36.2,0,0,1,427,288c6.06,1.09,8.35-1.06,7.65-7.41-.62-5.62-.13-11.37-.13-17.06,0-11.92,0-11.92-12-11.3H362.51c-34.65-.1-69.3-.13-103.94-.4-3.56,0-4.11,1.14-4.06,4.19.14,9.22.25,18.45,0,27.67-.12,4,1.59,4.36,4.85,4.34q51.6-.26,103.2-.3Zm-60.08-144h60.1c3,.08,6,.23,9,.23,12.54,0,17.51-7.84,11.88-19-5.24-10.44-13.91-16.08-25.55-16.87-4.72-.32-9.49,0-14.23-.12A42.25,42.25,0,0,1,362.5,66.75c-.2-6.13,2.88-14.51-1.35-17.77-4-3-11.94-.92-18.16-.94-16.28,0-16.28,0-16.44,16.57,0,.75,0,1.5,0,2.25a42,42,0,0,1-32.37,39.94c-7.43,1.85-14.91.92-22.36,1.23A29.92,29.92,0,0,0,244,129.25c-2.13,7,3.25,14.71,10.69,14.72C290.6,144,326.56,143.86,362.51,143.78ZM343.78,36h13.45c17.78,0,17.62,0,17.43-18.13,0-4.45-1.05-6.09-5.8-6-12.19.33-24.4.11-36.6.11-18.34,0-18.21,0-17.79,18.5.09,4.11,1.05,5.74,5.42,5.56C327.83,35.79,335.81,36,343.78,36Z"/><path class="cls-2" d="M422.6,300.27c7.73-.11,15.92-2.45,21.66,5.71,1.61,2.29,2.15,4,1.51,6.73-3.22,13.76-15,23.22-30,23.27q-51.62.16-103.23,0c-4.78,0-9.14.11-10.19,6.08h-23.6c-.87-4.36-3.58-5.84-8-6.18-11.88-.91-20.61-6.86-25.59-17.8-4.71-10.32.41-18.05,11.86-18q52.72.08,105.44.23c0,5.5.34,11,0,16.48s1,7.56,6.92,7.4c15.23-.41,30.48-.2,45.72-.1a20.17,20.17,0,0,0,10.08-2.37c8.61-4.78,9.1-8.88,2.29-15.81C425.75,304.12,424.22,302.15,422.6,300.27Z"/><path class="cls-3" d="M362.51,191.78c-34.72.1-69.44.12-104.15.41-3.85,0-4-1.64-3.8-4.41.39-4.47-1.67-7.09-6-8q0-11.78,0-23.56h114Q362.51,174,362.51,191.78Z"/><path class="cls-2" d="M362.51,143.78c-36,.08-71.91.23-107.87.19-7.44,0-12.82-7.75-10.69-14.72A29.92,29.92,0,0,1,271.79,108c7.46-.3,14.93.62,22.36-1.23a42,42,0,0,0,32.37-39.94c0-.75,0-1.5,0-2.25C326.71,48,326.71,48,343,48c6.21,0,14.2-2.11,18.16.94,4.23,3.26,1.15,11.64,1.35,17.77A42.25,42.25,0,0,0,403.68,108c4.74.13,9.51-.2,14.23.12,11.64.79,20.3,6.43,25.55,16.87,5.63,11.2.66,19-11.88,19-3,0-6-.15-9-.23,2.5-2.76,4.8-5.73,7.54-8.21,3.37-3.06,3.11-5.5.17-8.79-4.53-5.07-10-7.1-16.61-6.76-11.84.62-23.2-.75-34.09-6.18-6.27-3.13-10.67-8.48-17.09-12.87Z"/><path class="cls-4" d="M362.51,191.78q0-17.75,0-35.5h60.08q0,19.53.1,39.06,0,2.69,0,5.38c-.87,6.77-.18,12.22,7.39,15.62,6.62,3,6.17,8.27-.75,11.89-5,2.61-7.84,5.74-6.74,11.55H362.51q0-17.75,0-35.5c9.41-.08,18.82-.24,28.23-.21,4.29,0,7.61-1.32,7.61-6s-3.32-6-7.61-6C381.33,192,371.92,191.86,362.51,191.78Z"/><path class="cls-3" d="M362.51,204.28q0,17.75,0,35.5c-33.91.07-67.82.27-101.73.15A17.78,17.78,0,0,1,242.6,222c0-9.88,7.67-17.86,18.18-17.9C294.69,204,328.6,204.2,362.51,204.28Z"/><path class="cls-3" d="M362.51,287.78q-51.6.12-103.2.3c-3.26,0-5-.39-4.85-4.34.29-9.22.18-18.45,0-27.67,0-3.05.5-4.22,4.06-4.19,34.65.28,69.29.3,103.94.4Q362.51,270,362.51,287.78Z"/><path class="cls-4" d="M362.51,287.78q0-17.75,0-35.5h60.08q0,17.75,0,35.5Z"/><path class="cls-4" d="M362.51,143.78V101c6.41,4.39,10.82,9.75,17.09,12.87,10.89,5.43,22.25,6.8,34.09,6.18,6.62-.34,12.08,1.69,16.61,6.76,2.94,3.29,3.2,5.73-.17,8.79-2.74,2.49-5,5.46-7.54,8.21Z"/><path class="cls-4" d="M422.6,300.27c1.62,1.88,3.15,3.85,4.88,5.61,6.81,6.93,6.31,11-2.29,15.81a20.17,20.17,0,0,1-10.08,2.37c-15.24-.1-30.49-.32-45.72.1-5.93.16-7.3-2.06-6.92-7.4s.06-11,0-16.48Z"/><path class="cls-5" d="M343.78,36c-8,0-15.94-.23-23.9.09-4.36.17-5.32-1.46-5.42-5.56C314,12,313.91,12,332.25,12c12.2,0,24.41.22,36.6-.11,4.75-.13,5.75,1.51,5.8,6C374.84,36,375,36,357.22,36Z"/><path class="cls-2" d="M422.59,239.78c-1.09-5.81,1.77-8.95,6.74-11.55,6.92-3.63,7.37-8.91.75-11.89-7.57-3.4-8.27-8.85-7.39-15.62,1.86,1.58,3.56,3,6.3,3.45,11.71,1.84,18.25,9.25,17.47,19.21-.8,10.24-8.86,16.67-20.91,16.64C424.56,240,423.57,239.86,422.59,239.78Z"/><path class="cls-3" d="M422.69,195.33q0-19.53-.1-39.06c12-.61,12-.61,12,11,0,6.47-.12,12.94,0,19.4.09,3.54.19,6.56-4.84,5.44C426.66,191.39,424.69,193.47,422.69,195.33Z"/><path class="cls-3" d="M422.59,287.78q0-17.75,0-35.5c12-.62,12-.62,12,11.3,0,5.69-.49,11.44.13,17.06.7,6.36-1.59,8.5-7.65,7.41A36.2,36.2,0,0,0,422.59,287.78Z"/><path class="cls-1" d="M48.75,342.06c-1,4.83-4.09,6.15-8.74,6-20.2-.81-38.3-18.83-39.5-39-.3-5,2.07-8.13,5.45-10.69,5.49-4.17,7.33-9.34,6.7-16.13-.58-6.18-.17-12.45-.11-18.68.09-9.31.22-17.76-7-26C-3,227.9-1.22,212.72,7.66,203.18c4-4.31,5.48-8.44,4.9-13.89-.5-4.67.54-8.48,6-9.47,4.37.87,6.42,3.5,6,8-.24,2.77,0,4.44,3.8,4.41,34.72-.29,69.43-.31,104.15-.41,9.41.08,18.82.24,28.23.21,4.29,0,7.61,1.32,7.61,6s-3.32,6.05-7.61,6c-9.41,0-18.82.13-28.23.21-33.91-.08-67.82-.27-101.73-.15-10.5,0-18.18,8-18.18,17.9a17.78,17.78,0,0,0,18.18,17.91c33.91.12,67.82-.08,101.73-.15h60.08c1,.08,2,.23,3,.23,12,0,20.1-6.39,20.91-16.64.78-10-5.75-17.37-17.47-19.21-2.74-.43-4.44-1.87-6.3-3.45v-5.38c2-1.86,4-3.95,7.07-3.26,5,1.12,4.93-1.91,4.84-5.44-.17-6.46,0-12.93,0-19.4,0-11.56,0-11.56-12-11H18.52c-17.8-8.7-22.17-22-12.46-38.81,7.84-13.6,19.87-20.63,35.52-21.39,4.24-.21,8.5,0,12.74-.07C71.36,95.64,84,83.11,84.52,66.17c.1-3.5-.18-7,.07-10.49.36-4.89.36-8.64-6.6-7.93-3.62.37-5.46-2.88-5.45-6.68q0-16.87,0-33.73C72.54,2.39,75,0,79.94,0q34.48,0,69,0c5.37,0,7.71,2.56,7.67,7.81-.07,10.74-.08,21.49,0,32.23,0,5.18-2.13,8.38-7.49,7.89-4.55-.42-4.85,1.92-4.54,5.25a12.36,12.36,0,0,1,0,2.25C141.87,84.87,158.28,97.84,185,96.31c21.85-1.25,38.39,13.2,42.83,34.16,1.28,6.06,1,11.4-4.58,15.29s-7.5,9.21-6.87,16.07c.61,6.69.09,13.48.14,20.23.07,8.53-.33,16.25,6.63,23.94,9.35,10.33,6.87,26.11-3.29,36.73a10.85,10.85,0,0,0-3.43,8.48c.21,10.74.46,21.51-.07,32.22-.3,6.07,1.24,10.69,6.15,14.11,6.33,4.42,6.68,10.27,5,17.21-4.71,19.62-20.67,33.1-40.78,33.21-35.23.21-70.46,0-105.69.12-4.58,0-7.82-1.14-8.76-6,1.06-6,5.41-6.09,10.19-6.08q51.62.12,103.23,0c15,0,26.78-9.51,30-23.27.63-2.7.1-4.44-1.51-6.73-5.74-8.16-13.93-5.82-21.66-5.71H132.51q-52.72-.12-105.44-.23c-11.46,0-16.57,7.71-11.86,18,5,10.94,13.71,16.89,25.59,17.8C45.17,336.21,47.88,337.7,48.75,342.06Zm143.84-54.28A36.2,36.2,0,0,1,197,288c6.06,1.09,8.35-1.06,7.65-7.41-.62-5.62-.13-11.37-.13-17.06,0-11.92,0-11.92-12-11.3H132.51c-34.65-.1-69.3-.13-103.94-.4-3.56,0-4.11,1.14-4.06,4.19.14,9.22.25,18.45,0,27.67-.12,4,1.59,4.36,4.85,4.34q51.6-.26,103.2-.3Zm-60.08-144h60.1c3,.08,6,.23,9,.23,12.54,0,17.51-7.84,11.88-19-5.24-10.44-13.91-16.08-25.55-16.87-4.72-.32-9.49,0-14.23-.12A42.25,42.25,0,0,1,132.5,66.75c-.2-6.13,2.88-14.51-1.35-17.77-4-3-11.94-.92-18.16-.94-16.28,0-16.28,0-16.44,16.57,0,.75,0,1.5,0,2.25a42,42,0,0,1-32.37,39.94c-7.43,1.85-14.91.92-22.36,1.23A29.92,29.92,0,0,0,14,129.25c-2.13,7,3.25,14.71,10.69,14.72C60.6,144,96.56,143.86,132.51,143.78ZM113.78,36h13.45c17.78,0,17.62,0,17.43-18.13,0-4.45-1.05-6.09-5.8-6-12.19.33-24.4.11-36.6.11C83.91,12,84,12,84.46,30.54c.09,4.11,1.05,5.74,5.42,5.56C97.83,35.79,105.81,36,113.78,36Z"/><path class="cls-2" d="M192.6,300.27c7.73-.11,15.92-2.45,21.66,5.71,1.61,2.29,2.15,4,1.51,6.73-3.22,13.76-15,23.22-30,23.27q-51.62.16-103.23,0c-4.78,0-9.14.11-10.19,6.08H48.75c-.87-4.36-3.58-5.84-8-6.18C28.92,335,20.19,329,15.2,318.08c-4.71-10.32.41-18.05,11.86-18q52.72.08,105.44.23c0,5.5.34,11,0,16.48s1,7.56,6.92,7.4c15.23-.41,30.48-.2,45.72-.1a20.17,20.17,0,0,0,10.08-2.37c8.61-4.78,9.1-8.88,2.29-15.81C195.75,304.12,194.22,302.15,192.6,300.27Z"/><path class="cls-3" d="M132.51,191.78c-34.72.1-69.44.12-104.15.41-3.85,0-4-1.64-3.8-4.41.39-4.47-1.67-7.09-6-8q0-11.78,0-23.56h114Q132.51,174,132.51,191.78Z"/><path class="cls-2" d="M132.51,143.78c-36,.08-71.91.23-107.87.19-7.44,0-12.82-7.75-10.69-14.72A29.92,29.92,0,0,1,41.79,108c7.46-.3,14.93.62,22.36-1.23A42,42,0,0,0,96.52,66.87c0-.75,0-1.5,0-2.25C96.71,48,96.71,48,113,48c6.21,0,14.2-2.11,18.16.94,4.23,3.26,1.15,11.64,1.35,17.77A42.25,42.25,0,0,0,173.68,108c4.74.13,9.51-.2,14.23.12,11.64.79,20.3,6.43,25.55,16.87,5.63,11.2.66,19-11.88,19-3,0-6-.15-9-.23,2.5-2.76,4.8-5.73,7.54-8.21,3.37-3.06,3.11-5.5.17-8.79-4.53-5.07-10-7.1-16.61-6.76-11.84.62-23.2-.75-34.09-6.18-6.27-3.13-10.67-8.48-17.09-12.87Z"/><path class="cls-4" d="M132.51,191.78q0-17.75,0-35.5h60.08q0,19.53.1,39.06,0,2.69,0,5.38c-.87,6.77-.18,12.22,7.39,15.62,6.62,3,6.17,8.27-.75,11.89-5,2.61-7.84,5.74-6.74,11.55H132.51q0-17.75,0-35.5c9.41-.08,18.82-.24,28.23-.21,4.29,0,7.61-1.32,7.61-6s-3.32-6-7.61-6C151.33,192,141.92,191.86,132.51,191.78Z"/><path class="cls-3" d="M132.51,204.28q0,17.75,0,35.5c-33.91.07-67.82.27-101.73.15A17.78,17.78,0,0,1,12.6,222c0-9.88,7.67-17.86,18.18-17.9C64.69,204,98.6,204.2,132.51,204.28Z"/><path class="cls-3" d="M132.51,287.78q-51.6.12-103.2.3c-3.26,0-5-.39-4.85-4.34.29-9.22.18-18.45,0-27.67,0-3.05.5-4.22,4.06-4.19,34.65.28,69.29.3,103.94.4Q132.51,270,132.51,287.78Z"/><path class="cls-4" d="M132.51,287.78q0-17.75,0-35.5h60.08q0,17.75,0,35.5Z"/><path class="cls-4" d="M132.51,143.78V101c6.41,4.39,10.82,9.75,17.09,12.87,10.89,5.43,22.25,6.8,34.09,6.18,6.62-.34,12.08,1.69,16.61,6.76,2.94,3.29,3.2,5.73-.17,8.79-2.74,2.49-5,5.46-7.54,8.21Z"/><path class="cls-4" d="M192.6,300.27c1.62,1.88,3.15,3.85,4.88,5.61,6.81,6.93,6.31,11-2.29,15.81a20.17,20.17,0,0,1-10.08,2.37c-15.24-.1-30.49-.32-45.72.1-5.93.16-7.3-2.06-6.92-7.4s.06-11,0-16.48Z"/><path class="cls-5" d="M113.78,36c-8,0-15.94-.23-23.9.09-4.36.17-5.32-1.46-5.42-5.56C84,12,83.91,12,102.25,12c12.2,0,24.41.22,36.6-.11,4.75-.13,5.75,1.51,5.8,6C144.84,36,145,36,127.22,36Z"/><path class="cls-2" d="M192.59,239.78c-1.09-5.81,1.77-8.95,6.74-11.55,6.92-3.63,7.37-8.91.75-11.89-7.57-3.4-8.27-8.85-7.39-15.62,1.86,1.58,3.56,3,6.3,3.45,11.71,1.84,18.25,9.25,17.47,19.21-.8,10.24-8.86,16.67-20.91,16.64C194.56,240,193.57,239.86,192.59,239.78Z"/><path class="cls-3" d="M192.69,195.33q0-19.53-.1-39.06c12-.61,12-.61,12,11,0,6.47-.12,12.94,0,19.4.09,3.54.19,6.56-4.84,5.44C196.66,191.39,194.69,193.47,192.69,195.33Z"/><path class="cls-3" d="M192.59,287.78q0-17.75,0-35.5c12-.62,12-.62,12,11.3,0,5.69-.49,11.44.13,17.06.7,6.36-1.59,8.5-7.65,7.41A36.2,36.2,0,0,0,192.59,287.78Z"/><path class="cls-1" d="M163.75,408.06c-1,4.83-4.09,6.15-8.74,6-20.2-.81-38.3-18.83-39.5-39-.3-5,2.07-8.13,5.45-10.69,5.49-4.17,7.33-9.34,6.7-16.13-.58-6.18-.17-12.45-.11-18.68.09-9.31.22-17.76-7-26-8.46-9.58-6.72-24.77,2.15-34.31,4-4.31,5.48-8.44,4.9-13.89-.5-4.67.54-8.48,6-9.47,4.37.87,6.42,3.5,6,8-.24,2.77,0,4.44,3.8,4.41,34.72-.29,69.43-.31,104.15-.41,9.41.08,18.82.24,28.23.21,4.29,0,7.61,1.32,7.61,6s-3.32,6.05-7.61,6c-9.41,0-18.82.13-28.23.21-33.91-.08-67.82-.27-101.73-.15-10.5,0-18.18,8-18.18,17.9a17.78,17.78,0,0,0,18.18,17.91c33.91.12,67.82-.08,101.73-.15h60.08c1,.08,2,.23,3,.23,12,0,20.1-6.39,20.91-16.64.78-10-5.75-17.37-17.47-19.21-2.74-.43-4.44-1.87-6.3-3.45v-5.38c2-1.86,4-3.95,7.07-3.26,5,1.12,4.93-1.91,4.84-5.44-.17-6.46,0-12.93,0-19.4,0-11.56,0-11.56-12-11H133.52c-17.8-8.7-22.17-22-12.46-38.81,7.84-13.6,19.87-20.63,35.52-21.39,4.24-.21,8.5,0,12.74-.07,17.05-.37,29.74-12.9,30.21-29.84.1-3.5-.18-7,.07-10.49.36-4.89.36-8.64-6.6-7.93-3.62.37-5.46-2.88-5.45-6.68q0-16.87,0-33.73c0-4.94,2.48-7.31,7.39-7.31q34.48,0,69,0c5.37,0,7.71,2.56,7.67,7.81-.07,10.74-.08,21.49,0,32.23,0,5.18-2.13,8.38-7.49,7.89-4.55-.42-4.85,1.92-4.54,5.25a12.36,12.36,0,0,1,0,2.25c-2.68,29.44,13.73,42.41,40.49,40.88,21.85-1.25,38.39,13.2,42.83,34.16,1.28,6.06,1,11.4-4.58,15.29s-7.5,9.21-6.87,16.07c.61,6.69.09,13.48.14,20.23.07,8.53-.33,16.25,6.63,23.94,9.35,10.33,6.87,26.11-3.29,36.73a10.85,10.85,0,0,0-3.43,8.48c.21,10.74.46,21.51-.07,32.22-.3,6.07,1.24,10.69,6.15,14.11,6.33,4.42,6.68,10.27,5,17.21-4.71,19.62-20.67,33.1-40.78,33.21-35.23.21-70.46,0-105.69.12-4.58,0-7.82-1.14-8.76-6,1.06-6,5.41-6.09,10.19-6.08q51.62.12,103.23,0c15,0,26.78-9.51,30-23.27.63-2.7.1-4.44-1.51-6.73-5.74-8.16-13.93-5.82-21.66-5.71H247.51q-52.72-.12-105.44-.23c-11.46,0-16.57,7.71-11.86,18,5,10.94,13.71,16.89,25.59,17.8C160.17,402.21,162.88,403.7,163.75,408.06Zm143.84-54.28A36.2,36.2,0,0,1,312,354c6.06,1.09,8.35-1.06,7.65-7.41-.62-5.62-.13-11.37-.13-17.06,0-11.92,0-11.92-12-11.3H247.51c-34.65-.1-69.3-.13-103.94-.4-3.56,0-4.11,1.14-4.06,4.19.14,9.22.25,18.45,0,27.67-.12,4,1.59,4.36,4.85,4.34q51.6-.26,103.2-.3Zm-60.08-144h60.1c3,.08,6,.23,9,.23,12.54,0,17.51-7.84,11.88-19-5.24-10.44-13.91-16.08-25.55-16.87-4.72-.32-9.49,0-14.23-.12a42.25,42.25,0,0,1-41.18-41.24c-.2-6.13,2.88-14.51-1.35-17.77-4-3-11.94-.92-18.16-.94-16.28,0-16.28,0-16.44,16.57,0,.75,0,1.5,0,2.25a42,42,0,0,1-32.37,39.94c-7.43,1.85-14.91.92-22.36,1.23A29.92,29.92,0,0,0,129,195.25c-2.13,7,3.25,14.71,10.69,14.72C175.6,210,211.56,209.86,247.51,209.78ZM228.78,102h13.45c17.78,0,17.62,0,17.43-18.13,0-4.45-1.05-6.09-5.8-6-12.19.33-24.4.11-36.6.11-18.34,0-18.21,0-17.79,18.5.09,4.11,1.05,5.74,5.42,5.56C212.83,101.79,220.81,102,228.78,102Z"/><path class="cls-2" d="M307.6,366.27c7.73-.11,15.92-2.45,21.66,5.71,1.61,2.29,2.15,4,1.51,6.73-3.22,13.76-15,23.22-30,23.27q-51.62.16-103.23,0c-4.78,0-9.14.11-10.19,6.08h-23.6c-.87-4.36-3.58-5.84-8-6.18-11.88-.91-20.61-6.86-25.59-17.8-4.71-10.32.41-18.05,11.86-18q52.72.08,105.44.23c0,5.5.34,11,0,16.48s1,7.56,6.92,7.4c15.23-.41,30.48-.2,45.72-.1a20.17,20.17,0,0,0,10.08-2.37c8.61-4.78,9.1-8.88,2.29-15.81C310.75,370.12,309.22,368.15,307.6,366.27Z"/><path class="cls-3" d="M247.51,257.78c-34.72.1-69.44.12-104.15.41-3.85,0-4-1.64-3.8-4.41.39-4.47-1.67-7.09-6-8q0-11.78,0-23.56h114Q247.51,240,247.51,257.78Z"/><path class="cls-2" d="M247.51,209.78c-36,.08-71.91.23-107.87.19-7.44,0-12.82-7.75-10.69-14.72A29.92,29.92,0,0,1,156.79,174c7.46-.3,14.93.62,22.36-1.23a42,42,0,0,0,32.37-39.94c0-.75,0-1.5,0-2.25C211.71,114,211.71,114,228,114c6.21,0,14.2-2.11,18.16.94,4.23,3.26,1.15,11.64,1.35,17.77A42.25,42.25,0,0,0,288.68,174c4.74.13,9.51-.2,14.23.12,11.64.79,20.3,6.43,25.55,16.87,5.63,11.2.66,19-11.88,19-3,0-6-.15-9-.23,2.5-2.76,4.8-5.73,7.54-8.21,3.37-3.06,3.11-5.5.17-8.79-4.53-5.07-10-7.1-16.61-6.76-11.84.62-23.2-.75-34.09-6.18-6.27-3.13-10.67-8.48-17.09-12.87Z"/><path class="cls-4" d="M247.51,257.78q0-17.75,0-35.5h60.08q0,19.53.1,39.06,0,2.69,0,5.38c-.87,6.77-.18,12.22,7.39,15.62,6.62,3,6.17,8.27-.75,11.89-5,2.61-7.84,5.74-6.74,11.55H247.51q0-17.75,0-35.5c9.41-.08,18.82-.24,28.23-.21,4.29,0,7.61-1.32,7.61-6s-3.32-6-7.61-6C266.33,258,256.92,257.86,247.51,257.78Z"/><path class="cls-3" d="M247.51,270.28q0,17.75,0,35.5c-33.91.07-67.82.27-101.73.15A17.78,17.78,0,0,1,127.6,288c0-9.88,7.67-17.86,18.18-17.9C179.69,270,213.6,270.2,247.51,270.28Z"/><path class="cls-3" d="M247.51,353.78q-51.6.12-103.2.3c-3.26,0-5-.39-4.85-4.34.29-9.22.18-18.45,0-27.67,0-3.05.5-4.22,4.06-4.19,34.65.28,69.29.3,103.94.4Q247.51,336,247.51,353.78Z"/><path class="cls-4" d="M247.51,353.78q0-17.75,0-35.5h60.08q0,17.75,0,35.5Z"/><path class="cls-4" d="M247.51,209.78V167c6.41,4.39,10.82,9.75,17.09,12.87,10.89,5.43,22.25,6.8,34.09,6.18,6.62-.34,12.08,1.69,16.61,6.76,2.94,3.29,3.2,5.73-.17,8.79-2.74,2.49-5,5.46-7.54,8.21Z"/><path class="cls-4" d="M307.6,366.27c1.62,1.88,3.15,3.85,4.88,5.61,6.81,6.93,6.31,11-2.29,15.81a20.17,20.17,0,0,1-10.08,2.37c-15.24-.1-30.49-.32-45.72.1-5.93.16-7.3-2.06-6.92-7.4s.06-11,0-16.48Z"/><path class="cls-5" d="M228.78,102c-8,0-15.94-.23-23.9.09-4.36.17-5.32-1.46-5.42-5.56C199,78,198.91,78,217.25,78c12.2,0,24.41.22,36.6-.11,4.75-.13,5.75,1.51,5.8,6C259.84,102,260,102,242.22,102Z"/><path class="cls-2" d="M307.59,305.78c-1.09-5.81,1.77-8.95,6.74-11.55,6.92-3.63,7.37-8.91.75-11.89-7.57-3.4-8.27-8.85-7.39-15.62,1.86,1.58,3.56,3,6.3,3.45,11.71,1.84,18.25,9.25,17.47,19.21-.8,10.24-8.86,16.67-20.91,16.64C309.56,306,308.57,305.86,307.59,305.78Z"/><path class="cls-3" d="M307.69,261.33q0-19.53-.1-39.06c12-.61,12-.61,12,11,0,6.47-.12,12.94,0,19.4.09,3.54.19,6.56-4.84,5.44C311.66,257.39,309.69,259.47,307.69,261.33Z"/><path class="cls-3" d="M307.59,353.78q0-17.75,0-35.5c12-.62,12-.62,12,11.3,0,5.69-.49,11.44.13,17.06.7,6.36-1.59,8.5-7.65,7.41A36.2,36.2,0,0,0,307.59,353.78Z"/></g></g></svg>