<svg xmlns="http://www.w3.org/2000/svg" viewBox="0 0 455 311"><defs><style>.cls-1{fill:#33e533;}.cls-2{fill:#6ff76f;}.cls-3{fill:#21d621;}</style></defs><title>gases</title><g id="Layer_2" data-name="Layer 2"><g id="Layer_1-2" data-name="Layer 1"><rect class="cls-1" x="210" y="69" width="245" height="159" rx="55.5" ry="55.5"/><rect class="cls-2" x="216" y="135" width="229" height="13"/><path d="M399.5,84A40.55,40.55,0,0,1,440,124.5v48A40.55,40.55,0,0,1,399.5,213h-134A40.55,40.55,0,0,1,225,172.5v-48A40.55,40.55,0,0,1,265.5,84h134m0-15h-134A55.66,55.66,0,0,0,210,124.5v48A55.66,55.66,0,0,0,265.5,228h134A55.66,55.66,0,0,0,455,172.5v-48A55.66,55.66,0,0,0,399.5,69Z"/><path class="cls-3" d="M404,0H257a2,2,0,0,0-2,2V25a2,2,0,0,0,2,2h2a2,2,0,0,1,2,2V84H402V29a2,2,0,0,1,2-2,2,2,0,0,0,2-2V2A2,2,0,0,0,404,0ZM361,15V40.5a.5.5,0,0,1-.5.5h-56a.5.5,0,0,1-.5-.5V15Z"/><path d="M404,0H257a2,2,0,0,0-2,2V25a2,2,0,0,0,2,2h2a2,2,0,0,1,2,2V84H402V29a2,2,0,0,1,2-2,2,2,0,0,0,2-2V2A2,2,0,0,0,404,0ZM391,18a17.08,17.08,0,0,0-4,11V69H276V29a17,17,0,0,0-6-13V15H391Z"/><path class="cls-3" d="M252,213H414a0,0,0,0,1,0,0v25.83A14.17,14.17,0,0,1,399.83,253H266.17A14.17,14.17,0,0,1,252,238.83V213A0,0,0,0,1,252,213Z"/><path d="M399,228v10H267V228H399m15-15H252v25.83A14.17,14.17,0,0,0,266.17,253H399.83A14.17,14.17,0,0,0,414,238.83V213Z"/><path d="M289,0V40.5A15.5,15.5,0,0,0,304.5,56h56A15.5,15.5,0,0,0,376,40.5V0Zm72,40.5a.5.5,0,0,1-.5.5h-56a.5.5,0,0,1-.5-.5V15h57Z"/><rect class="cls-1" y="74" width="245" height="159" rx="55.5" ry="55.5"/><rect class="cls-2" x="6" y="140" width="229" height="13"/><path d="M189.5,89A40.55,40.55,0,0,1,230,129.5v48A40.55,40.55,0,0,1,189.5,218H55.5A40.55,40.55,0,0,1,15,177.5v-48A40.55,40.55,0,0,1,55.5,89h134m0-15H55.5A55.66,55.66,0,0,0,0,129.5v48A55.66,55.66,0,0,0,55.5,233h134A55.66,55.66,0,0,0,245,177.5v-48A55.66,55.66,0,0,0,189.5,74Z"/><path class="cls-3" d="M194,5H47a2,2,0,0,0-2,2V30a2,2,0,0,0,2,2h2a2,2,0,0,1,2,2V89H192V34a2,2,0,0,1,2-2,2,2,0,0,0,2-2V7A2,2,0,0,0,194,5ZM151,20V45.5a.5.5,0,0,1-.5.5h-56a.5.5,0,0,1-.5-.5V20Z"/><path d="M194,5H47a2,2,0,0,0-2,2V30a2,2,0,0,0,2,2h2a2,2,0,0,1,2,2V89H192V34a2,2,0,0,1,2-2,2,2,0,0,0,2-2V7A2,2,0,0,0,194,5ZM181,23a17.08,17.08,0,0,0-4,11V74H66V34a17,17,0,0,0-6-13V20H181Z"/><path class="cls-3" d="M42,218H204a0,0,0,0,1,0,0v25.83A14.17,14.17,0,0,1,189.83,258H56.17A14.17,14.17,0,0,1,42,243.83V218a0,0,0,0,1,0,0Z"/><path d="M189,233v10H57V233H189m15-15H42v25.83A14.17,14.17,0,0,0,56.17,258H189.83A14.17,14.17,0,0,0,204,243.83V218Z"/><path d="M79,5V45.5A15.5,15.5,0,0,0,94.5,61h56A15.5,15.5,0,0,0,166,45.5V5Zm72,40.5a.5.5,0,0,1-.5.5h-56a.5.5,0,0,1-.5-.5V20h57Z"/><rect class="cls-1" x="103" y="127" width="245" height="159" rx="55.5" ry="55.5"/><rect class="cls-2" x="109" y="193" width="229" height="13"/><path d="M292.5,142A40.55,40.55,0,0,1,333,182.5v48A40.55,40.55,0,0,1,292.5,271h-134A40.55,40.55,0,0,1,118,230.5v-48A40.55,40.55,0,0,1,158.5,142h134m0-15h-134A55.66,55.66,0,0,0,103,182.5v48A55.66,55.66,0,0,0,158.5,286h134A55.66,55.66,0,0,0,348,230.5v-48A55.66,55.66,0,0,0,292.5,127Z"/><path class="cls-3" d="M297,58H150a2,2,0,0,0-2,2V83a2,2,0,0,0,2,2h2a2,2,0,0,1,2,2v55H295V87a2,2,0,0,1,2-2,2,2,0,0,0,2-2V60A2,2,0,0,0,297,58ZM254,73V98.5a.5.5,0,0,1-.5.5h-56a.5.5,0,0,1-.5-.5V73Z"/><path d="M297,58H150a2,2,0,0,0-2,2V83a2,2,0,0,0,2,2h2a2,2,0,0,1,2,2v55H295V87a2,2,0,0,1,2-2,2,2,0,0,0,2-2V60A2,2,0,0,0,297,58ZM284,76a17.08,17.08,0,0,0-4,11v40H169V87a17,17,0,0,0-6-13V73H284Z"/><path class="cls-3" d="M145,271H307a0,0,0,0,1,0,0v25.83A14.17,14.17,0,0,1,292.83,311H159.17A14.17,14.17,0,0,1,145,296.83V271A0,0,0,0,1,145,271Z"/><path d="M292,286v10H160V286H292m15-15H145v25.83A14.17,14.17,0,0,0,159.17,311H292.83A14.17,14.17,0,0,0,307,296.83V271Z"/><path d="M182,58V98.5A15.5,15.5,0,0,0,197.5,114h56A15.5,15.5,0,0,0,269,98.5V58Zm72,40.5a.5.5,0,0,1-.5.5h-56a.5.5,0,0,1-.5-.5V73h57Z"/></g></g></svg>