<svg xmlns="http://www.w3.org/2000/svg" viewBox="0 0 680.89 172.5"><defs><style>.cls-1{fill:#eaa000;}</style></defs><title>warlok_1</title><g id="Layer_2" data-name="Layer 2"><g id="Layer_1-2" data-name="Layer 1"><path class="cls-1" d="M557,35.68a65.51,65.51,0,1,0-70.82,107.09c7.85,3.15,16.17,29.73,24.5,29.73s16.65-26.58,24.5-29.73A65.54,65.54,0,0,0,557,35.68Zm-46.32,73.25A27.93,27.93,0,1,1,538.57,81,27.93,27.93,0,0,1,510.64,108.93Z"/><path d="M120.51,150a17.43,17.43,0,0,1-11.76-4.41,21,21,0,0,1-5.92-8.81l-.24-.78L86.71,74.68,70.53,136.33l-.16.43a21.43,21.43,0,0,1-6.2,9.07A17.4,17.4,0,0,1,52.73,150a18,18,0,0,1-11.25-3.88,19.39,19.39,0,0,1-6.54-9.64l0-.12L1.19,24.32C-.72,18-.33,12.5,2.36,7.94,5.37,2.82,10.51,0,16.83,0A18.45,18.45,0,0,1,27.36,3.23a18.29,18.29,0,0,1,7.13,10.08l0,.11,18,62.78L69.05,14.59a16.93,16.93,0,0,1,6.67-9.46A18.63,18.63,0,0,1,86.62,1.68,19.4,19.4,0,0,1,96.53,4.4,15.87,15.87,0,0,1,104,14.53l16.79,62.32,18.39-64.25C141.54,4.68,148.15,0,156.91,0c7.07,0,12.66,3.66,14.94,9.79a23,23,0,0,1,.26,14.32l-.06.22-33.8,112.17-.1.27a21.43,21.43,0,0,1-6.2,9.07A17.4,17.4,0,0,1,120.51,150ZM52.19,127.88l.49,1.61.42-1.61Zm67.91,0,.41,1.59.48-1.59ZM87.41,19.49h0ZM16.16,18.42Z"/><path d="M221.36,150.69a49.91,49.91,0,0,1-27-7.58,53.07,53.07,0,0,1-18.66-20.16,59,59,0,0,1-6.75-28.22,56.21,56.21,0,0,1,7.4-28.58,54.87,54.87,0,0,1,20-20.13A55.55,55.55,0,0,1,280,88.35l.32.14v43.65A18.16,18.16,0,0,1,249.45,145a18.25,18.25,0,0,1-1.44-1.62A50,50,0,0,1,221.36,150.69Zm3.36-78a19.27,19.27,0,0,0-10.27,2.74,20.11,20.11,0,0,0-7.34,7.71,23.36,23.36,0,0,0-2.76,11.59,23,23,0,0,0,2.76,11.42,20.09,20.09,0,0,0,7.34,7.71,20.77,20.77,0,0,0,20.57,0,19.71,19.71,0,0,0,7.18-7.66,23.57,23.57,0,0,0,2.71-11.5,24,24,0,0,0-2.71-11.67A19.74,19.74,0,0,0,235,75.39,19.16,19.16,0,0,0,224.72,72.68Z"/><path d="M311.73,150c-6.5,0-10.55-2.59-12.8-4.76s-5.09-6.32-5.09-13.13v-75c0-6.58,2.7-10.66,5-12.93s6.34-5,12.92-5,10.77,2.65,13,4.87l.19.19.29-.16a46.7,46.7,0,0,1,23.1-5.91c8.69,0,15.32,1.58,20.25,4.85,6.58,4.35,9.48,11,7.78,17.91a15.75,15.75,0,0,1-12.76,12.37,19.3,19.3,0,0,1-7.71-.23,37.88,37.88,0,0,0-15.3-.34c-3.83.83-6.77,2.26-8.73,4.25-1,1.05-2.22,2.7-2.22,6.09v49c0,6.49-2.58,10.54-4.75,12.79S318.54,150,311.73,150Zm-1.15-17.31Z"/><path d="M425,150h-.34a31.54,31.54,0,0,1-18.57-5.77,36.19,36.19,0,0,1-12.05-14.8,47.66,47.66,0,0,1-4-20V17.89a17.89,17.89,0,1,1,35.78,0v91.6a13.11,13.11,0,0,0,.72,4.76h2.36a16.36,16.36,0,0,1,12.53,5.51,18.24,18.24,0,0,1,4.52,12.38,16.7,16.7,0,0,1-7.05,13.69A22.81,22.81,0,0,1,425,150Z"/><path d="M663,151.14q-.7,0-1.4-.05a16.94,16.94,0,0,1-12.1-6.42l-23.38-28.91V132.3a17.72,17.72,0,1,1-35.44,0V17.72a17.72,17.72,0,1,1,35.44,0v47L651,42.56a17.39,17.39,0,0,1,29,13.59,17.25,17.25,0,0,1-5.69,11.79l-.15.14-24,21.44,26.75,32.92a17.4,17.4,0,0,1,4,12.55,17.11,17.11,0,0,1-6.53,12l-.05,0A17.68,17.68,0,0,1,663,151.14Zm-55.9-18.67Z"/></g></g></svg>